<svg xmlns="http://www.w3.org/2000/svg" xmlns:xlink="http://www.w3.org/1999/xlink" viewBox="0 0 100 100"><defs><style>.a{fill:url(#a);}.b{fill:none;stroke:#000;stroke-miterlimit:10;}</style><radialGradient id="a" cx="50" cy="50" r="50" gradientUnits="userSpaceOnUse"><stop offset="0" stop-color="#fff"/><stop offset="0.87" stop-color="#6a95ff"/></radialGradient></defs><circle class="a" cx="50" cy="50" r="50"/><path class="b" d="M19.53,50.31h.24a2.82,2.82,0,0,0,2.81-2.82V24.8A2.82,2.82,0,0,1,25.4,22H80.47a2.82,2.82,0,0,0,2.81-2.82v-.24a2.81,2.81,0,0,0-2.81-2.81H19.53a2.82,2.82,0,0,0-2.82,2.81V47.49A2.83,2.83,0,0,0,19.53,50.31Z" transform="translate(0 -0.31)"/><path class="b" d="M29.52,73.22,66.11,36.58a2.8,2.8,0,0,0,0-4l-.17-.17a2.8,2.8,0,0,0-4,0L17.53,77.19a2.83,2.83,0,0,0-.81,2v1.9a2.8,2.8,0,0,0,2.81,2.81H80.47a2.8,2.8,0,0,0,2.81-2.81v-.24A2.8,2.8,0,0,0,80.47,78h-49A2.81,2.81,0,0,1,29.52,73.22Z" transform="translate(0 -0.31)"/></svg>