<svg xmlns="http://www.w3.org/2000/svg" xmlns:xlink="http://www.w3.org/1999/xlink" viewBox="0 0 66.57 67.77"><defs><style>.cls-1{fill:url(#linear-gradient);}.cls-2{fill:url(#linear-gradient-2);}</style><linearGradient id="linear-gradient" x1="11.35" y1="-8.28" x2="33.69" y2="17.56" gradientUnits="userSpaceOnUse"><stop offset="0" stop-color="#3f56ff"/><stop offset="0.46" stop-color="#5f00e9"/><stop offset="1" stop-color="#f0ff15"/></linearGradient><linearGradient id="linear-gradient-2" x1="50.74" y1="25.4" x2="28.88" y2="73.76" gradientUnits="userSpaceOnUse"><stop offset="0" stop-color="#3f56ff"/><stop offset="0.41" stop-color="#5f00e9"/><stop offset="1" stop-color="#f0ff15"/></linearGradient></defs><g id="Layer_2" data-name="Layer 2"><g id="Layer_1-2" data-name="Layer 1"><g id="Layer_2-2" data-name="Layer 2"><g id="Layer_1-2-2" data-name="Layer 1-2"><path class="cls-1" d="M2.81,34.19h.25a2.81,2.81,0,0,0,2.81-2.81V8.68A2.81,2.81,0,0,1,8.68,5.87H63.76a2.81,2.81,0,0,0,2.81-2.81V2.81A2.81,2.81,0,0,0,63.76,0H2.81A2.81,2.81,0,0,0,0,2.81V31.38A2.81,2.81,0,0,0,2.81,34.19Z"/><path class="cls-2" d="M12.8,57.1,49.39,20.47a2.81,2.81,0,0,0,0-4l-.16-.16a2.82,2.82,0,0,0-4,0L.82,61.08a2.78,2.78,0,0,0-.82,2V65a2.81,2.81,0,0,0,2.81,2.81h61A2.81,2.81,0,0,0,66.57,65v-.25a2.81,2.81,0,0,0-2.81-2.81h-49A2.81,2.81,0,0,1,12.8,57.1Z"/></g></g></g></g></svg>