<svg xmlns="http://www.w3.org/2000/svg" viewBox="0 0 205.82 68.77"><defs><style>.a{stroke:#000;stroke-miterlimit:10;}.b{font-size:33.41px;font-family:MyriadPro-Regular, Myriad Pro;}.c{letter-spacing:-0.04em;}.d{letter-spacing:-0.03em;}</style></defs><path class="a" d="M2.81,34.19h.25a2.81,2.81,0,0,0,2.81-2.81V8.68A2.81,2.81,0,0,1,8.68,5.87H63.76a2.81,2.81,0,0,0,2.81-2.81V2.81A2.81,2.81,0,0,0,63.76,0H2.81A2.81,2.81,0,0,0,0,2.81V31.38A2.81,2.81,0,0,0,2.81,34.19Z" transform="translate(0.5 0.5)"/><path class="a" d="M12.8,57.1,49.39,20.47a2.81,2.81,0,0,0,0-4l-.16-.16a2.82,2.82,0,0,0-4,0L.82,61.08a2.78,2.78,0,0,0-.82,2V65a2.81,2.81,0,0,0,2.81,2.81h61A2.81,2.81,0,0,0,66.57,65v-.25a2.81,2.81,0,0,0-2.81-2.81h-49A2.81,2.81,0,0,1,12.8,57.1Z" transform="translate(0.5 0.5)"/><text class="b" transform="translate(75.54 45.28)">Easy<tspan class="c" x="61.5" y="0"> </tspan><tspan class="d" x="67.38" y="0">W</tspan><tspan x="94.54" y="0">eb</tspan></text></svg>